<mxfile host="app.diagrams.net" agent="Mozilla/5.0 (X11; Ubuntu; Linux x86_64; rv:137.0) Gecko/20100101 Firefox/137.0" version="26.2.13">
  <diagram id="C5RBs43oDa-KdzZeNtuy" name="Page-1">
    <mxGraphModel dx="1428" dy="912" grid="1" gridSize="10" guides="1" tooltips="1" connect="1" arrows="1" fold="1" page="1" pageScale="1" pageWidth="827" pageHeight="1169" math="0" shadow="0">
      <root>
        <mxCell id="WIyWlLk6GJQsqaUBKTNV-0" />
        <mxCell id="WIyWlLk6GJQsqaUBKTNV-1" parent="WIyWlLk6GJQsqaUBKTNV-0" />
        <mxCell id="6_8KwjZQ5-gkqyheN0VY-24" style="edgeStyle=orthogonalEdgeStyle;rounded=0;orthogonalLoop=1;jettySize=auto;html=1;" edge="1" parent="WIyWlLk6GJQsqaUBKTNV-1" source="WIyWlLk6GJQsqaUBKTNV-3" target="6_8KwjZQ5-gkqyheN0VY-10">
          <mxGeometry relative="1" as="geometry" />
        </mxCell>
        <mxCell id="WIyWlLk6GJQsqaUBKTNV-3" value="INICIO" style="rounded=1;whiteSpace=wrap;html=1;fontSize=12;glass=0;strokeWidth=1;shadow=0;" parent="WIyWlLk6GJQsqaUBKTNV-1" vertex="1">
          <mxGeometry x="285" y="20" width="120" height="40" as="geometry" />
        </mxCell>
        <mxCell id="6_8KwjZQ5-gkqyheN0VY-15" style="edgeStyle=orthogonalEdgeStyle;rounded=0;orthogonalLoop=1;jettySize=auto;html=1;" edge="1" parent="WIyWlLk6GJQsqaUBKTNV-1" source="6_8KwjZQ5-gkqyheN0VY-10" target="6_8KwjZQ5-gkqyheN0VY-12">
          <mxGeometry relative="1" as="geometry" />
        </mxCell>
        <mxCell id="6_8KwjZQ5-gkqyheN0VY-10" value="PAR O INPAR" style="shape=parallelogram;perimeter=parallelogramPerimeter;whiteSpace=wrap;html=1;fixedSize=1;" vertex="1" parent="WIyWlLk6GJQsqaUBKTNV-1">
          <mxGeometry x="269.5" y="240" width="151" height="60" as="geometry" />
        </mxCell>
        <mxCell id="6_8KwjZQ5-gkqyheN0VY-52" style="edgeStyle=orthogonalEdgeStyle;rounded=0;orthogonalLoop=1;jettySize=auto;html=1;exitX=1;exitY=0.5;exitDx=0;exitDy=0;" edge="1" parent="WIyWlLk6GJQsqaUBKTNV-1" source="6_8KwjZQ5-gkqyheN0VY-12" target="6_8KwjZQ5-gkqyheN0VY-51">
          <mxGeometry relative="1" as="geometry" />
        </mxCell>
        <mxCell id="6_8KwjZQ5-gkqyheN0VY-56" value="SI" style="edgeLabel;html=1;align=center;verticalAlign=middle;resizable=0;points=[];" vertex="1" connectable="0" parent="6_8KwjZQ5-gkqyheN0VY-52">
          <mxGeometry x="0.3878" y="-4" relative="1" as="geometry">
            <mxPoint as="offset" />
          </mxGeometry>
        </mxCell>
        <mxCell id="6_8KwjZQ5-gkqyheN0VY-54" style="edgeStyle=orthogonalEdgeStyle;rounded=0;orthogonalLoop=1;jettySize=auto;html=1;" edge="1" parent="WIyWlLk6GJQsqaUBKTNV-1" source="6_8KwjZQ5-gkqyheN0VY-12" target="6_8KwjZQ5-gkqyheN0VY-50">
          <mxGeometry relative="1" as="geometry" />
        </mxCell>
        <mxCell id="6_8KwjZQ5-gkqyheN0VY-55" value="NO " style="edgeLabel;html=1;align=center;verticalAlign=middle;resizable=0;points=[];" vertex="1" connectable="0" parent="6_8KwjZQ5-gkqyheN0VY-54">
          <mxGeometry x="0.3818" relative="1" as="geometry">
            <mxPoint as="offset" />
          </mxGeometry>
        </mxCell>
        <mxCell id="6_8KwjZQ5-gkqyheN0VY-12" value="N mod 2 =0 " style="rhombus;whiteSpace=wrap;html=1;" vertex="1" parent="WIyWlLk6GJQsqaUBKTNV-1">
          <mxGeometry x="290" y="390" width="115" height="120" as="geometry" />
        </mxCell>
        <mxCell id="6_8KwjZQ5-gkqyheN0VY-18" value="FIN" style="ellipse;whiteSpace=wrap;html=1;" vertex="1" parent="WIyWlLk6GJQsqaUBKTNV-1">
          <mxGeometry x="520" y="700" width="120" height="80" as="geometry" />
        </mxCell>
        <mxCell id="6_8KwjZQ5-gkqyheN0VY-50" value="N no es par&amp;nbsp; " style="shape=document;whiteSpace=wrap;html=1;boundedLbl=1;" vertex="1" parent="WIyWlLk6GJQsqaUBKTNV-1">
          <mxGeometry x="80" y="520" width="120" height="80" as="geometry" />
        </mxCell>
        <mxCell id="6_8KwjZQ5-gkqyheN0VY-57" style="edgeStyle=orthogonalEdgeStyle;rounded=0;orthogonalLoop=1;jettySize=auto;html=1;" edge="1" parent="WIyWlLk6GJQsqaUBKTNV-1" source="6_8KwjZQ5-gkqyheN0VY-51" target="6_8KwjZQ5-gkqyheN0VY-18">
          <mxGeometry relative="1" as="geometry" />
        </mxCell>
        <mxCell id="6_8KwjZQ5-gkqyheN0VY-51" value="N si es par " style="shape=document;whiteSpace=wrap;html=1;boundedLbl=1;" vertex="1" parent="WIyWlLk6GJQsqaUBKTNV-1">
          <mxGeometry x="520" y="520" width="120" height="80" as="geometry" />
        </mxCell>
      </root>
    </mxGraphModel>
  </diagram>
</mxfile>
